# File created by Blade
# Date/Time:  Thu Sep 25 19:43:58 2014
# Frame Rate: 120.000 fps
#------------------------------------------------------
:FULLY-SPECIFIED
:DEGREES
306
root 1.747996 19.970964 -9.254050 42.688862 37.335188 -6.409164
Spine 6.576520 -4.228236 -12.555332
Head -41.278829 -2.725566 23.417712
LeftShoulder 2.825051 3.019192 30.274475
LeftArm 34.380420 -2.469216 -32.962571
LeftForeArm 7.750359 -0.000000 29.266810
LeftHand -23.678233 -0.000000 1.715683
LeftHandThumb1 -26.253704 0.000000 33.147579
RightShoulder -15.321615 18.374457 -29.073310
RightArm -14.368874 13.957443 51.051801
RightForeArm -22.633414 0.000000 20.635681
RightHand -10.420468 -0.000000 3.899260
RightHandThumb1 -24.326973 -0.000000 -32.862282
LeftUpLeg -123.877981 22.492120 -5.476498
LeftLeg 94.459813 -0.000000 -0.000000
LeftFoot -19.792920 -17.061659 -14.459169
LeftToeBase -1.426090 -0.000000 0.000000
RightUpLeg -11.202225 -42.590035 -29.434602
RightLeg 3.845921 -0.000000 -0.000000
RightFoot -1.248979 -22.804228 40.342852
RightToeBase 5.441676 -0.000000 -0.000000
307
root 1.691714 19.828265 -9.283052 42.737925 37.306305 -6.483441
Spine 6.689107 -4.185679 -12.363451
Head -41.418604 -2.638946 23.260275
LeftShoulder 2.836205 2.842056 30.093170
LeftArm 34.224710 -1.774330 -33.137109
LeftForeArm 8.071308 -0.000000 29.577509
LeftHand -23.782054 -0.000000 1.787504
LeftHandThumb1 -26.253704 0.000000 33.147579
RightShoulder -15.364718 18.723916 -29.212930
RightArm -14.195141 13.887307 50.971534
RightForeArm -22.598942 -0.000000 20.649532
RightHand -10.373398 -0.000000 3.742314
RightHandThumb1 -24.326973 -0.000000 -32.862282
LeftUpLeg -124.459121 22.580447 -5.326688
LeftLeg 94.872318 -0.000000 -0.000000
LeftFoot -19.665822 -17.033603 -14.658925
LeftToeBase -1.644254 -0.000000 0.000000
RightUpLeg -11.144641 -43.131948 -29.451318
RightLeg 3.669805 -0.000000 -0.000000
RightFoot -1.508165 -22.457509 40.941047
RightToeBase 5.556592 -0.000000 -0.000000
308
root 1.636907 19.688487 -9.308501 42.698670 37.210734 -6.625388
Spine 6.845810 -4.071028 -12.213929
Head -41.576527 -2.509727 23.157802
LeftShoulder 2.802989 2.954671 29.844952
LeftArm 34.247000 -1.328200 -33.230587
LeftForeArm 8.536098 -0.000000 29.834101
LeftHand -23.796005 -0.000000 1.946328
LeftHandThumb1 -26.253704 0.000000 33.147579
RightShoulder -15.316965 18.783021 -29.290889
RightArm -13.839612 13.916156 51.006847
RightForeArm -22.469682 -0.000000 20.614024
RightHand -10.329818 0.000000 3.610372
RightHandThumb1 -24.326973 -0.000000 -32.862282
LeftUpLeg -124.976508 22.774824 -5.128134
LeftLeg 95.311711 -0.000000 -0.000000
LeftFoot -19.610912 -16.993476 -14.747351
LeftToeBase -1.700712 -0.000000 0.000000
RightUpLeg -11.107926 -43.580240 -29.445390
RightLeg 3.501850 -0.000000 -0.000000
RightFoot -1.777805 -22.127794 41.481590
RightToeBase 5.725202 -0.000000 -0.000000
309
root 1.583153 19.551883 -9.333055 42.629662 37.097135 -6.781053
Spine 7.031955 -3.908050 -12.102012
Head -41.799900 -2.413270 23.100417
LeftShoulder 2.795825 2.983098 29.625187
LeftArm 34.202808 -0.930923 -33.383229
LeftForeArm 8.674926 0.000000 30.090854
LeftHand -23.778492 -0.000000 1.968239
LeftHandThumb1 -26.253704 0.000000 33.147579
RightShoulder -15.274802 18.906789 -29.296270
RightArm -13.648151 14.035117 50.951744
RightForeArm -22.668794 -0.000000 20.719730
RightHand -10.143557 -0.000000 3.364658
RightHandThumb1 -24.326973 -0.000000 -32.862282
LeftUpLeg -125.439142 22.973163 -4.875461
LeftLeg 95.745407 -0.000000 -0.000000
LeftFoot -19.610887 -16.878346 -14.863548
LeftToeBase -1.742670 -0.000000 0.000000
RightUpLeg -11.074422 -44.029477 -29.442304
RightLeg 3.340378 -0.000000 -0.000000
RightFoot -2.045833 -21.813217 42.212162
RightToeBase 5.835987 -0.000000 -0.000000
310
root 1.532380 19.415953 -9.358114 42.527114 36.904997 -6.977791
Spine 7.210373 -3.715932 -12.050679
Head -41.978723 -2.311550 23.086730
LeftShoulder 2.768906 2.945512 29.431893
LeftArm 34.077461 -0.491425 -33.588723
LeftForeArm 8.973569 -0.000000 30.304934
LeftHand -23.730410 0.000000 2.007819
LeftHandThumb1 -26.253704 0.000000 33.147579
RightShoulder -15.233306 18.976926 -29.313990
RightArm -13.344139 14.139160 50.935136
RightForeArm -22.456556 -0.000000 20.801564
RightHand -10.239871 -0.000000 3.479536
RightHandThumb1 -24.326973 -0.000000 -32.862282
LeftUpLeg -125.899902 23.238599 -4.635306
LeftLeg 96.220294 -0.000000 -0.000000
LeftFoot -19.651551 -16.693694 -14.956981
LeftToeBase -1.718771 -0.000000 0.000000
RightUpLeg -11.108877 -44.376162 -29.435537
RightLeg 3.223988 -0.000000 -0.000000
RightFoot -2.366612 -21.398349 42.889492
RightToeBase 5.961724 -0.000000 -0.000000
311
root 1.482254 19.283296 -9.381653 42.409079 36.714676 -7.235118
Spine 7.361547 -3.486788 -11.954023
Head -42.231394 -2.210735 23.042447
LeftShoulder 2.748022 2.805508 29.229128
LeftArm 33.924940 0.005083 -33.849394
LeftForeArm 9.101698 -0.000000 30.444563
LeftHand -23.816343 -0.000000 2.194899
LeftHandThumb1 -26.253704 0.000000 33.147579
RightShoulder -15.190790 19.228292 -29.362534
RightArm -13.284420 14.086113 50.837719
RightForeArm -22.367928 0.000000 20.918082
RightHand -10.130661 -0.000000 3.449201
RightHandThumb1 -24.326973 -0.000000 -32.862282
LeftUpLeg -126.340309 23.562429 -4.313012
LeftLeg 96.648745 -0.000000 -0.000000
LeftFoot -19.669113 -16.638369 -15.043790
LeftToeBase -1.670455 -0.000000 0.000000
RightUpLeg -11.188260 -44.613708 -29.377371
RightLeg 3.128613 -0.000000 -0.000000
RightFoot -2.608056 -21.041998 43.532561
RightToeBase 6.011712 -0.000000 -0.000000
312
root 1.435216 19.151757 -9.405144 42.250661 36.480163 -7.523779
Spine 7.512451 -3.241932 -11.890162
Head -42.419081 -2.096129 23.025224
LeftShoulder 2.722126 2.820263 29.028112
LeftArm 33.815624 0.401551 -34.059594
LeftForeArm 8.954408 -0.000000 30.549190
LeftHand -23.939655 0.000000 2.625981
LeftHandThumb1 -26.253704 0.000000 33.147579
RightShoulder -15.189282 19.361817 -29.385306
RightArm -12.995602 13.966138 50.834997
RightForeArm -22.347939 -0.000000 20.856336
RightHand -10.033058 -0.000000 3.264778
RightHandThumb1 -24.326973 -0.000000 -32.862282
LeftUpLeg -126.760571 23.938568 -3.985530
LeftLeg 97.102218 -0.000000 -0.000000
LeftFoot -19.650356 -16.588001 -15.209842
LeftToeBase -1.737623 -0.000000 0.000000
RightUpLeg -11.304273 -44.771855 -29.327221
RightLeg 3.069832 -0.000000 -0.000000
RightFoot -2.718771 -20.791247 43.677862
RightToeBase 6.136300 -0.000000 -0.000000
313
root 1.391648 19.022287 -9.430417 42.088967 36.251848 -7.782818
Spine 7.712661 -3.030098 -11.843176
Head -42.634770 -1.963903 22.956964
LeftShoulder 2.684468 2.827867 28.818174
LeftArm 33.697478 0.751001 -34.305156
LeftForeArm 8.824949 -0.000000 30.626204
LeftHand -24.004021 0.000000 3.102454
LeftHandThumb1 -26.253704 0.000000 33.147579
RightShoulder -15.131255 19.585208 -29.408271
RightArm -12.873462 13.830161 50.742610
RightForeArm -22.175349 -0.000000 20.866651
RightHand -9.980255 -0.000000 3.254153
RightHandThumb1 -24.326973 -0.000000 -32.862282
LeftUpLeg -127.146176 24.284665 -3.661063
LeftLeg 97.531049 -0.000000 -0.000000
LeftFoot -19.628406 -16.559427 -15.405083
LeftToeBase -1.548257 -0.000000 0.000000
RightUpLeg -11.379632 -44.960340 -29.345053
RightLeg 3.021005 -0.000000 -0.000000
RightFoot -2.692076 -20.613427 43.754653
RightToeBase 6.196704 -0.000000 -0.000000
314
root 1.351567 18.892035 -9.453640 41.901978 35.991282 -8.075659
Spine 7.886088 -2.776852 -11.797861
Head -42.808026 -1.850183 22.876553
LeftShoulder 2.665586 2.903684 28.587691
LeftArm 33.621959 1.034451 -34.531200
LeftForeArm 8.520729 -0.000000 30.657745
LeftHand -24.283065 -0.000000 3.491538
LeftHandThumb1 -26.253704 0.000000 33.147579
RightShoulder -15.097733 19.748639 -29.435728
RightArm -12.718396 13.785658 50.665084
RightForeArm -22.181577 0.000000 20.854102
RightHand -10.032796 -0.000000 3.196517
RightHandThumb1 -24.326973 -0.000000 -32.862282
LeftUpLeg -127.539601 24.670852 -3.371593
LeftLeg 97.991906 -0.000000 -0.000000
LeftFoot -19.632960 -16.469103 -15.580847
LeftToeBase -1.415947 -0.000000 0.000000
RightUpLeg -11.476441 -45.090390 -29.358481
RightLeg 2.951264 -0.000000 -0.000000
RightFoot -2.514147 -20.564940 43.646489
RightToeBase 6.008340 -0.000000 -0.000000
315
root 1.310868 18.765135 -9.476966 41.748635 35.781942 -8.355418
Spine 8.022019 -2.628575 -11.732138
Head -42.928568 -1.700818 22.744858
LeftShoulder 2.710971 2.811354 28.416841
LeftArm 33.280726 1.394610 -34.942064
LeftForeArm 8.500001 -0.000000 30.732114
LeftHand -24.494599 0.000000 3.964827
LeftHandThumb1 -26.253704 0.000000 33.147579
RightShoulder -15.026407 19.824059 -29.394025
RightArm -12.428800 13.731826 50.575690
RightForeArm -22.118425 -0.000000 20.765199
RightHand -9.952086 -0.000000 3.042038
RightHandThumb1 -24.326973 -0.000000 -32.862282
LeftUpLeg -127.978773 24.958972 -3.159322
LeftLeg 98.423771 -0.000000 -0.000000
LeftFoot -19.780330 -16.090011 -15.477574
LeftToeBase -1.425410 -0.000000 0.000000
RightUpLeg -11.589224 -45.267079 -29.348459
RightLeg 2.914919 -0.000000 -0.000000
RightFoot -2.260599 -20.528452 43.320433
RightToeBase 6.029923 -0.000000 -0.000000
316
root 1.275289 18.633023 -9.501425 41.568890 35.511775 -8.613159
Spine 8.172408 -2.448752 -11.725702
Head -43.001153 -1.613770 22.611163
LeftShoulder 2.754005 2.938767 28.238908
LeftArm 33.062077 1.716421 -35.153304
LeftForeArm 8.149317 -0.000000 30.787700
LeftHand -24.633285 0.000000 4.649425
LeftHandThumb1 -26.253704 0.000000 33.147579
RightShoulder -15.023651 19.880305 -29.444050
RightArm -12.115069 13.576761 50.590181
RightForeArm -22.060180 -0.000000 20.636973
RightHand -9.914669 -0.000000 2.772497
RightHandThumb1 -24.326973 -0.000000 -32.862282
LeftUpLeg -128.357540 25.316699 -2.888617
LeftLeg 98.902970 -0.000000 -0.000000
LeftFoot -19.843974 -15.886194 -15.509883
LeftToeBase -1.485899 -0.000000 0.000000
RightUpLeg -11.701948 -45.390168 -29.437369
RightLeg 2.960919 -0.000000 -0.000000
RightFoot -2.087583 -20.421722 43.195995
RightToeBase 5.969427 -0.000000 -0.000000
317
root 1.241414 18.506397 -9.520941 41.400260 35.285833 -8.871981
Spine 8.317626 -2.351736 -11.708876
Head -43.089333 -1.474011 22.498171
LeftShoulder 2.792738 2.886265 28.095723
LeftArm 32.682093 2.112325 -35.547347
LeftForeArm 7.901319 -0.000000 30.845860
LeftHand -24.961915 -0.000000 5.265576
LeftHandThumb1 -26.253704 0.000000 33.147579
RightShoulder -14.932661 20.041950 -29.458872
RightArm -11.984999 13.474039 50.515538
RightForeArm -21.954010 -0.000000 20.577493
RightHand -9.880273 -0.000000 2.653558
RightHandThumb1 -24.326973 -0.000000 -32.862282
LeftUpLeg -128.735494 25.671647 -2.644901
LeftLeg 99.364629 -0.000000 -0.000000
LeftFoot -19.879560 -15.775563 -15.591390
LeftToeBase -1.526494 -0.000000 0.000000
RightUpLeg -11.791373 -45.567110 -29.485207
RightLeg 2.962392 -0.000000 -0.000000
RightFoot -1.813555 -20.329927 42.997925
RightToeBase 5.845680 -0.000000 -0.000000
318
root 1.205125 18.383854 -9.544826 41.237414 35.071550 -9.099788
Spine 8.508108 -2.254332 -11.713919
Head -43.205425 -1.375626 22.390740
LeftShoulder 2.850049 3.073618 27.970290
LeftArm 32.463604 2.392282 -35.778650
LeftForeArm 7.350986 -0.000000 30.917330
LeftHand -25.157862 -0.000000 6.156143
LeftHandThumb1 -26.253704 0.000000 33.147579
RightShoulder -14.944049 20.153500 -29.498360
RightArm -11.739423 13.437382 50.467804
RightForeArm -21.913377 -0.000000 20.419321
RightHand -9.842917 -0.000000 2.547271
RightHandThumb1 -24.326973 -0.000000 -32.862282
LeftUpLeg -129.079028 25.986563 -2.394317
LeftLeg 99.763368 -0.000000 -0.000000
LeftFoot -19.911783 -15.663500 -15.688509
LeftToeBase -1.294533 -0.000000 0.000000
RightUpLeg -11.897574 -45.722731 -29.556125
RightLeg 3.032024 -0.000000 -0.000000
RightFoot -1.615182 -20.177422 42.900381
RightToeBase 5.719390 -0.000000 -0.000000
